<svg xmlns="http://www.w3.org/2000/svg" viewBox="0 0 64 64" width="64" height="64">
  <!-- Gear/cog outline -->
  <path d="M32,12 L35,16 L40,14 L41,19 L46,19 L45,24 L50,26 L47,30 L50,34 L45,36 L46,41 L41,41 L40,46 L35,44 L32,48 L29,44 L24,46 L23,41 L18,41 L19,36 L14,34 L17,30 L14,26 L19,24 L18,19 L23,19 L24,14 L29,16 Z"
        fill="none" stroke="#7f8c8d" stroke-width="2"/>
  <!-- Inner circle of gear -->
  <circle cx="32" cy="30" r="8" fill="none" stroke="#7f8c8d" stroke-width="2"/>
  <!-- AI sparkle -->
  <path d="M48,8 L50,13 L55,15 L50,17 L48,22 L46,17 L41,15 L46,13 Z" fill="#f39c12"/>
  <!-- Small sparkle -->
  <path d="M52,24 L53,26 L55,27 L53,28 L52,30 L51,28 L49,27 L51,26 Z" fill="#f39c12"/>
  <!-- Connection dot (green) -->
  <circle cx="20" cy="50" r="4" fill="#27ae60"/>
  <!-- Signal waves from dot -->
  <path d="M26,46 Q30,50 26,54" fill="none" stroke="#27ae60" stroke-width="1.5" stroke-linecap="round"/>
  <path d="M30,43 Q36,50 30,57" fill="none" stroke="#27ae60" stroke-width="1.5" stroke-linecap="round" opacity="0.5"/>
</svg>
